{
  "source": "C:\\Users\\Peter\\Desktop\\stuff\\MIUN\\quantitative_research\\video_compression\\videos\\BVI-HD\\BVI-HD_CDVL_videos\\ORIG\\Toys_1920x1080_30fps.mp4",
  "output": "C:\\Users\\Peter\\Desktop\\stuff\\MIUN\\quantitative_research\\video_compression\\compressed_videos\\BVI-HD\\h264\\1\\Toys_1920x1080_30fps_h264.mp4",
  "codec": "h264",
  "ok": "Input #0, mov,mp4,m4a,3gp,3g2,mj2, from 'C:\\Users\\Peter\\Desktop\\stuff\\MIUN\\quantitative_research\\video_compression\\videos\\BVI-HD\\BVI-HD_CDVL_videos\\ORIG\\Toys_1920x1080_30fps.mp4':\n  Metadata:\n    major_brand     : isom\n    minor_version   : 512\n    compatible_brands: isomiso2avc1mp41\n    encoder         : Lavf54.28.101\n  Duration: 00:00:05.00, start: 0.000000, bitrate: 270887 kb/s\n  Stream #0:0[0x1](und): Video: h264 (High 4:4:4 Predictive) (avc1 / 0x31637661), yuv420p(progressive), 1920x1080, 270883 kb/s, 30 fps, 30 tbr, 30 tbn (default)\n    Metadata:\n      handler_name    : VideoHandler\n      vendor_id       : [0][0][0][0]\n[out#0/mp4 @ 0000020024e79a40] Codec AVOption b:a (set bitrate (in bits/s)) has not been used for any stream. The most likely reason is either wrong type (e.g. a video option with no video streams) or that it is a private option of some decoder which was not actually used for any stream.\nStream mapping:\n  Stream #0:0 -> #0:0 (h264 (native) -> h264 (libx264))\nPress [q] to stop, [?] for help\n[libx264 @ 0000020025422c00] using cpu capabilities: MMX2 SSE2Fast SSSE3 SSE4.2 AVX FMA3 BMI2 AVX2\n[libx264 @ 0000020025422c00] profile High, level 5.0, 4:2:0, 8-bit\n[libx264 @ 0000020025422c00] 264 - core 165 r3222 b35605a - H.264/MPEG-4 AVC codec - Copyleft 2003-2025 - http://www.videolan.org/x264.html - options: cabac=1 ref=5 deblock=1:0:0 analyse=0x3:0x113 me=hex subme=8 psy=1 psy_rd=1.00:0.00 mixed_ref=1 me_range=16 chroma_me=1 trellis=2 8x8dct=1 cqm=0 deadzone=21,11 fast_pskip=1 chroma_qp_offset=-2 threads=18 lookahead_threads=3 sliced_threads=0 nr=0 decimate=1 interlaced=0 bluray_compat=0 constrained_intra=0 bframes=3 b_pyramid=2 b_adapt=1 b_bias=0 direct=3 weightb=1 open_gop=0 weightp=2 keyint=250 keyint_min=25 scenecut=40 intra_refresh=0 rc_lookahead=50 rc=cbr mbtree=1 bitrate=1000 ratetol=1.0 qcomp=0.60 qpmin=0 qpmax=69 qpstep=4 vbv_maxrate=1000 vbv_bufsize=1000 nal_hrd=none filler=0 ip_ratio=1.40 aq=1:1.00\nOutput #0, mp4, to 'C:\\Users\\Peter\\Desktop\\stuff\\MIUN\\quantitative_research\\video_compression\\compressed_videos\\BVI-HD\\h264\\1\\Toys_1920x1080_30fps_h264.mp4':\n  Metadata:\n    major_brand     : isom\n    minor_version   : 512\n    compatible_brands: isomiso2avc1mp41\n    encoder         : Lavf62.3.100\n  Stream #0:0(und): Video: h264 (avc1 / 0x31637661), yuv420p(tv, progressive), 1920x1080, q=2-31, 1000 kb/s, 30 fps, 15360 tbn (default)\n    Metadata:\n      encoder         : Lavc62.11.100 libx264\n      handler_name    : VideoHandler\n      vendor_id       : [0][0][0][0]\n    Side data:\n      cpb: bitrate max/min/avg: 1000000/0/1000000 buffer size: 1000000 vbv_delay: N/A\nframe=    0 fps=0.0 q=0.0 size=       0KiB time=N/A bitrate=N/A speed=N/A elapsed=0:00:00.51    \nframe=    0 fps=0.0 q=0.0 size=       0KiB time=N/A bitrate=N/A speed=N/A elapsed=0:00:01.15    \nframe=    0 fps=0.0 q=0.0 size=       0KiB time=N/A bitrate=N/A speed=N/A elapsed=0:00:01.70    \nframe=   16 fps=7.0 q=47.0 size=       0KiB time=00:00:00.23 bitrate=   1.6kbits/s speed=0.102x elapsed=0:00:02.29    \nframe=   39 fps= 13 q=48.0 size=       0KiB time=00:00:01.10 bitrate=   0.3kbits/s speed=0.373x elapsed=0:00:02.94    \nframe=   67 fps= 19 q=47.0 size=       0KiB time=00:00:02.03 bitrate=   0.2kbits/s speed=0.574x elapsed=0:00:03.54    \nframe=  105 fps= 26 q=46.0 size=     256KiB time=00:00:03.26 bitrate= 642.1kbits/s speed=0.798x elapsed=0:00:04.09    \n[mp4 @ 0000020024e81440] Starting second pass: moving the moov atom to the beginning of the file\n[out#0/mp4 @ 0000020024e79a40] video:504KiB audio:0KiB subtitle:0KiB other streams:0KiB global headers:0KiB muxing overhead: 0.513302%\nframe=  150 fps= 32 q=-1.0 Lsize=     507KiB time=00:00:04.93 bitrate= 841.8kbits/s speed=1.06x elapsed=0:00:04.63    \n[libx264 @ 0000020025422c00] frame I:1     Avg QP:43.31  size: 29549\n[libx264 @ 0000020025422c00] frame P:38    Avg QP:45.99  size:  7177\n[libx264 @ 0000020025422c00] frame B:111   Avg QP:49.86  size:  1923\n[libx264 @ 0000020025422c00] consecutive B-frames:  0.7%  1.3%  2.0% 96.0%\n[libx264 @ 0000020025422c00] mb I  I16..4: 35.9% 61.2%  2.9%\n[libx264 @ 0000020025422c00] mb P  I16..4:  4.5%  4.1%  0.0%  P16..4: 29.7%  1.8%  1.6%  0.0%  0.0%    skip:58.3%\n[libx264 @ 0000020025422c00] mb B  I16..4:  0.0%  0.0%  0.0%  B16..8: 23.0%  0.2%  0.0%  direct: 0.0%  skip:76.8%  L0:28.6% L1:71.3% BI: 0.1%\n[libx264 @ 0000020025422c00] 8x8 transform intra:50.7% inter:95.5%\n[libx264 @ 0000020025422c00] direct mvs  spatial:91.0% temporal:9.0%\n[libx264 @ 0000020025422c00] coded y,uvDC,uvAC intra: 12.3% 15.8% 0.6% inter: 0.7% 0.8% 0.0%\n[libx264 @ 0000020025422c00] i16 v,h,dc,p: 33% 34%  8% 25%\n[libx264 @ 0000020025422c00] i8 v,h,dc,ddl,ddr,vr,hd,vl,hu:  4%  5% 48%  6%  9%  6% 10%  5%  7%\n[libx264 @ 0000020025422c00] i4 v,h,dc,ddl,ddr,vr,hd,vl,hu:  7%  7% 11% 13% 19% 10% 13%  8% 13%\n[libx264 @ 0000020025422c00] i8c dc,h,v,p: 94%  4%  2%  0%\n[libx264 @ 0000020025422c00] Weighted P-Frames: Y:7.9% UV:0.0%\n[libx264 @ 0000020025422c00] ref P L0: 76.3%  2.2% 15.2%  3.3%  2.7%  0.3%\n[libx264 @ 0000020025422c00] ref B L0: 94.0%  4.9%  0.8%  0.3%\n[libx264 @ 0000020025422c00] ref B L1: 98.4%  1.6%\n[libx264 @ 0000020025422c00] kb/s:825.12\n",
  "seconds": 5.151613235473633,
  "probe_out": {}
}